<?xml version="1.0" standalone="no"?><!DOCTYPE svg PUBLIC "-//W3C//DTD SVG 1.1//EN" "http://www.w3.org/Graphics/SVG/1.1/DTD/svg11.dtd"><svg t="1637648467596" class="icon" viewBox="0 0 1024 1024" version="1.1" xmlns="http://www.w3.org/2000/svg" p-id="6406" xmlns:xlink="http://www.w3.org/1999/xlink" width="200" height="200"><defs><style type="text/css"></style></defs><path d="M798.6 653.5c24.6 34.9 52.9 57.4 84.7 67.6-13.8 42.7-35.8 87.1-65.8 133.4-46.3 69.7-91.9 104.6-137 104.6-16.8 0-41.8-5.7-74.8-17.1-30.6-11.4-57.4-17.1-80.2-17.1-22.8 0-48.1 6-75.7 18-28.8 11.4-52.6 17.1-71.2 17.1-54.1 0-107.3-46-159.5-137.9-52.3-90.7-78.4-180-78.4-267.7 0-81.1 19.8-147.5 59.5-199.2 40.9-51.7 91.3-77.5 151.4-77.5 13.2 0 27.9 1.7 44.2 5 16.2 3.3 33.1 9.5 50.5 18.5 18.6 10.2 34 17.3 46 21.2 12 3.9 21.3 5.9 27.9 5.9 7.8 0 19.8-1.8 36.1-5.4 16.2-3.6 32.5-10.2 48.7-19.8 17.4-9.6 32.5-16.8 45.1-21.6 12.6-4.8 25.5-7.2 38.8-7.2 42.1 0 79.9 11.4 113.6 34.3 18 12 36.4 29.7 55 53.2-27.6 24-47.8 45.1-60.4 63.1-23.4 33.7-35.2 70.3-35.2 110-0.2 43.5 12.1 83.2 36.7 118.6zM617.5 232.6c-21 19.8-40.3 32.8-57.7 38.8-6 1.8-13.7 3.5-23 5s-20 2.9-32 4.1c0.6-52.9 14.4-98.6 41.5-137 27-38.5 71.5-64.9 133.4-79.3 1.2 6 2.1 10.2 2.7 12.6v9.9c0 21.6-5.1 46-15.3 73-10.9 26.3-27.4 50.6-49.6 72.9z" fill="" p-id="6407"></path></svg>