<?xml version="1.0" standalone="no"?><!DOCTYPE svg PUBLIC "-//W3C//DTD SVG 1.1//EN" "http://www.w3.org/Graphics/SVG/1.1/DTD/svg11.dtd"><svg t="1637648423491" class="icon" viewBox="0 0 1024 1024" version="1.1" xmlns="http://www.w3.org/2000/svg" p-id="5106" xmlns:xlink="http://www.w3.org/1999/xlink" width="200" height="200"><defs><style type="text/css"></style></defs><path d="M607.558379 159.412686l0 106.074897 108.565625 0L541.30749 440.302051c-43.273573-33.992185-97.834212-54.264904-157.12969-54.264904-140.600225 0-254.578116 113.978914-254.578116 254.579139s113.978914 254.579139 254.578116 254.579139 254.578116-113.978914 254.578116-254.579139c0-42.796712-10.57587-83.117023-29.232788-118.517277l180.232874-180.232874 0 107.667162 106.074897 0L895.830899 265.48656l0-75.375711 0-30.699186L607.558379 159.411663zM384.177799 789.358959c-82.147952 0-148.742672-66.594721-148.742672-148.742672 0-82.147952 66.594721-148.742672 148.742672-148.742672s148.742672 66.594721 148.742672 148.742672C532.920472 722.764238 466.325751 789.358959 384.177799 789.358959z" p-id="5107"></path></svg>