<?xml version="1.0" standalone="no"?><!DOCTYPE svg PUBLIC "-//W3C//DTD SVG 1.1//EN" "http://www.w3.org/Graphics/SVG/1.1/DTD/svg11.dtd"><svg t="1637666057028" class="icon" viewBox="0 0 1024 1024" version="1.1" xmlns="http://www.w3.org/2000/svg" p-id="6979" xmlns:xlink="http://www.w3.org/1999/xlink" width="200" height="200"><defs><style type="text/css"></style></defs><path d="M32 669.28v-347.2L275.52 496 32 669.28z m340-330.4h585.44A34.56 34.56 0 0 1 992 373.44a34.72 34.72 0 0 1-34.56 34.72H372a34.72 34.72 0 0 1-34.56-34.72 34.56 34.56 0 0 1 34.56-34.56z m0 244.32h585.44A34.72 34.72 0 0 1 992 617.92a34.72 34.72 0 0 1-34.56 34.56H372a34.72 34.72 0 0 1-34.56-34.56 34.72 34.72 0 0 1 34.56-34.72zM66.56 818.88h890.88A34.56 34.56 0 0 1 992 853.44a34.56 34.56 0 0 1-34.56 34.56H66.56A34.56 34.56 0 0 1 32 853.44a34.56 34.56 0 0 1 34.56-34.56z m0-715.68h890.88A34.72 34.72 0 0 1 992 137.92a34.56 34.56 0 0 1-34.56 34.56H66.56A34.56 34.56 0 0 1 32 137.92a34.72 34.72 0 0 1 34.56-34.72z" p-id="6980"></path></svg>
