<?xml version="1.0" standalone="no"?><!DOCTYPE svg PUBLIC "-//W3C//DTD SVG 1.1//EN" "http://www.w3.org/Graphics/SVG/1.1/DTD/svg11.dtd"><svg t="1637648364929" class="icon" viewBox="0 0 1024 1024" version="1.1" xmlns="http://www.w3.org/2000/svg" p-id="3406" xmlns:xlink="http://www.w3.org/1999/xlink" width="200" height="200"><defs><style type="text/css"></style></defs><path d="M510.364757 66.029856c-247.466138 0-448.073038 200.606901-448.073038 448.074062S262.897595 962.176956 510.364757 962.176956c247.462045 0 448.073038-200.606901 448.073038-448.073038S757.826801 66.029856 510.364757 66.029856zM662.781098 684.286901l-15.839757 15.84385c-8.751315 8.746198-22.936385 8.746198-31.683607 0L469.961558 554.833551c-5.021364-5.021364-4.40431-15.114233-4.40431-25.047466L465.557248 245.25989c0-12.375865 10.032494-22.403243 22.403243-22.403243l22.403243 0c12.371772 0 22.403243 10.027377 22.403243 22.403243l0 277.326213 130.013099 130.017192C671.532413 661.353586 671.532413 675.535587 662.781098 684.286901z" p-id="3407"></path></svg>