<?xml version="1.0" standalone="no"?><!DOCTYPE svg PUBLIC "-//W3C//DTD SVG 1.1//EN" "http://www.w3.org/Graphics/SVG/1.1/DTD/svg11.dtd"><svg t="1637648406031" class="icon" viewBox="0 0 1024 1024" version="1.1" xmlns="http://www.w3.org/2000/svg" p-id="4594" xmlns:xlink="http://www.w3.org/1999/xlink" width="200" height="200"><defs><style type="text/css"></style></defs><path d="M860.724343 156.132611H746.993528L733.130102 57.482499c-4.412627-31.615374-34.151367-57.482499-66.138687-57.482499H357.042399c-31.98732 0-61.709153 25.867125-66.172501 57.583939l-13.795799 98.548672H163.30947C99.098138 156.132611 47.059569 171.754326 47.059569 221.476687v29.94162h929.863955V221.476687c0-49.722362-52.004755-65.344076-116.199181-65.344076zM359.375512 58.649056h305.265883l13.626733 97.483555H345.748778zM880.099326 323.829349H143.934487c-42.604676 0-74.389116 34.743099-70.500595 77.178708L136.918241 946.770572c3.837802 42.452516 41.894598 77.161802 84.533086 77.161802h581.114252c42.621582 0 80.678378-34.726192 84.533087-77.161802l63.450535-545.762515c3.888522-42.452516-27.862105-77.178708-70.449875-77.178708z m-64.803064 122.217937a26.205257 26.205257 0 0 1-26.222163 26.222163H243.801876a26.205257 26.205257 0 0 1-26.222164-26.222163 26.222164 26.222164 0 0 1 26.222164-26.222164h545.272223a26.222164 26.222164 0 0 1 26.222163 26.222164z" p-id="4595"></path></svg>
