<?xml version="1.0" standalone="no"?><!DOCTYPE svg PUBLIC "-//W3C//DTD SVG 1.1//EN" "http://www.w3.org/Graphics/SVG/1.1/DTD/svg11.dtd"><svg t="1637648413947" class="icon" viewBox="0 0 1024 1024" version="1.1" xmlns="http://www.w3.org/2000/svg" p-id="4852" xmlns:xlink="http://www.w3.org/1999/xlink" width="200" height="200"><defs><style type="text/css"></style></defs><path d="M565.9915625 123.5225c-212.0896875 0-384.6271875 169.9678125-389.8115625 381.495h-117.22875l175.5365625 195.6534375 175.5065625-195.6534375h-136.275c5.15625-157.5178125 134.004375-283.6678125 292.27125-283.6678125 161.6146875 0 292.56 131.3653125 292.56 293.4515625 0 162.1040625-130.9171875 293.454375-292.56 293.454375-64.7446875 0-124.5984375-21.1734375-173.0615625-56.9090625l-67.1034375 71.73375c66.1715625 51.95625 149.5284375 82.974375 240.166875 82.974375 215.435625 0 390.10125-175.18125 390.10125-391.2796875-0.058125-216.1003125-174.721875-391.2796875-390.10125-391.2796875v0.028125z" p-id="4853"></path></svg>