<?xml version="1.0" standalone="no"?><!DOCTYPE svg PUBLIC "-//W3C//DTD SVG 1.1//EN" "http://www.w3.org/Graphics/SVG/1.1/DTD/svg11.dtd"><svg t="1637648410096" class="icon" viewBox="0 0 1024 1024" version="1.1" xmlns="http://www.w3.org/2000/svg" p-id="4725" xmlns:xlink="http://www.w3.org/1999/xlink" width="200" height="200"><defs><style type="text/css"></style></defs><path d="M446.19 97.593c-229.738 0-416.047 186.859-416.108 417.365 0 230.505 186.309 417.365 416.108 417.365 96.681 0 185.595-33.085 256.178-88.506l-71.577-76.516c-51.695 38.118-115.539 60.703-184.599 60.703-172.419 0-312.064-140.105-312.064-313.018 0-172.894 139.675-313.015 312.064-313.015 168.818 0 306.257 134.56 311.757 302.579h-145.363l187.209 208.697 187.239-208.697h-125.044c-5.53-225.628-189.57-406.928-415.799-406.928v-0.030z" p-id="4726"></path></svg>