<?xml version="1.0" standalone="no"?><!DOCTYPE svg PUBLIC "-//W3C//DTD SVG 1.1//EN" "http://www.w3.org/Graphics/SVG/1.1/DTD/svg11.dtd"><svg t="1637648419025" class="icon" viewBox="0 0 1024 1024" version="1.1" xmlns="http://www.w3.org/2000/svg" p-id="4979" xmlns:xlink="http://www.w3.org/1999/xlink" width="200" height="200"><defs><style type="text/css"></style></defs><path d="M638.755915 126.117372c-140.600225 0-254.578116 113.978914-254.578116 254.579139 0 51.695383 15.423271 99.780541 41.897226 139.936099L318.140781 628.566856 202.278983 512l-73.845869 77.600379 114.285906 114.388237L126.385479 820.321134l75.006298 75.006298 116.299773-116.299773 116.195396 116.299773 76.747965-73.094762L392.918881 703.800327 501.546927 595.172281c39.59581 25.384134 86.683245 40.102347 137.208988 40.102347 140.600225 0 254.579139-113.978914 254.579139-254.579139S779.356141 126.117372 638.755915 126.117372zM638.755915 529.439184C556.607964 529.439184 490.014266 462.844463 490.014266 380.696512c0-82.147952 66.594721-148.742672 148.742672-148.742672s148.742672 66.594721 148.742672 148.742672C787.498588 462.844463 720.90489 529.439184 638.755915 529.439184z" p-id="4980"></path></svg>